<svg width="50" height="50" viewBox="0 0 71 72" fill="none" xmlns="http://www.w3.org/2000/svg">
<g clip-path="url(#clip0_502_515)">
<path d="M35.4062 71.0625C54.8225 71.0625 70.5625 55.3225 70.5625 35.9062C70.5625 16.49 54.8225 0.75 35.4062 0.75C15.99 0.75 0.25 16.49 0.25 35.9062C0.25 55.3225 15.99 71.0625 35.4062 71.0625Z" fill="#F0F0F0"/>
<path d="M35.4062 26.735H69.3514C68.4699 23.4646 67.1301 20.3828 65.4025 17.5638H35.4062V26.735Z" fill="#338AF3"/>
<path d="M13.522 63.4199H57.2906C60.499 60.8644 63.2506 57.7605 65.4025 54.2486H5.41016C7.56224 57.7604 10.3138 60.8644 13.522 63.4199V63.4199Z" fill="#338AF3"/>
<path d="M35.4062 0.75V8.39264H57.2906C51.2852 3.60974 43.6802 0.75 35.4062 0.75V0.75Z" fill="#338AF3"/>
<path d="M35.4062 26.735H69.3514C68.4699 23.4646 67.1301 20.3828 65.4025 17.5638H35.4062V26.735Z" fill="#338AF3"/>
<path d="M0.25 35.9062C0.25 39.0795 0.672974 42.1532 1.46111 45.0775H69.3515C70.1395 42.1532 70.5625 39.0795 70.5625 35.9062H0.25Z" fill="#338AF3"/>
<path d="M30.8209 21.3248L26.5272 23.3445L28.8136 27.5028L24.1512 26.611L23.5604 31.3207L20.3132 27.8567L17.0656 31.3207L16.4749 26.611L11.8126 27.5025L14.0989 23.3443L9.80542 21.3248L14.099 19.3054L11.8126 15.147L16.4748 16.0388L17.0657 11.3291L20.3132 14.7931L23.5606 11.3291L24.1512 16.0388L28.8137 15.147L26.5273 19.3055L30.8209 21.3248Z" fill="#FFDA44"/>
</g>
<defs>
<clipPath id="clip0_502_515">
<rect width="70.3125" height="70.3125" fill="white" transform="translate(0.25 0.75)"/>
</clipPath>
</defs>
</svg>
