<svg width="50" height="50" viewBox="0 0 71 72" fill="none" xmlns="http://www.w3.org/2000/svg">
<g clip-path="url(#clip0_502_515)">
<path d="M0.25 35.9062C0.25 51.0221 9.79053 63.9083 23.1778 68.8757L26.235 35.9061L23.1778 2.93669C9.79053 7.90416 0.25 20.7903 0.25 35.9062Z" fill="#6DA544"/>
<path d="M70.5625 35.9062C70.5625 16.4901 54.8223 0.75 35.4062 0.75C31.1059 0.75 26.9864 1.52357 23.1777 2.93669V68.8758C26.9864 70.2891 31.1059 71.0625 35.4062 71.0625C54.8223 71.0625 70.5625 55.3224 70.5625 35.9062Z" fill="#D80027"/>
<path d="M23.1781 48.1345C29.9316 48.1345 35.4063 42.6597 35.4063 35.9063C35.4063 29.1528 29.9316 23.6781 23.1781 23.6781C16.4247 23.6781 10.95 29.1528 10.95 35.9063C10.95 42.6597 16.4247 48.1345 23.1781 48.1345Z" fill="#FFDA44"/>
<path d="M16.2996 29.7921V37.4347C16.2996 41.2335 19.379 44.3131 23.178 44.3131C26.9769 44.3131 30.0564 41.2337 30.0564 37.4347V29.7921H16.2996Z" fill="#D80027"/>
<path d="M23.1779 39.7276C21.9136 39.7276 20.885 38.699 20.885 37.4347V34.3778H25.4706V37.4349C25.4706 38.699 24.442 39.7276 23.1779 39.7276Z" fill="#F0F0F0"/>
</g>
<defs>
<clipPath id="clip0_502_515">
<rect width="70.3125" height="70.3125" fill="white" transform="translate(0.25 0.75)"/>
</clipPath>
</defs>
</svg>
